<svg width="30" height="28" viewBox="0 0 30 28" fill="none" xmlns="http://www.w3.org/2000/svg">
<path d="M11.1897 26.7804C8.98443 26.1219 6.98722 24.9037 5.39233 23.2444C5.90545 22.6359 6.22531 21.888 6.31099 21.0966C6.39667 20.3052 6.24427 19.5062 5.87329 18.8019C5.50231 18.0976 4.92963 17.52 4.22852 17.143C3.52742 16.7661 2.72977 16.6069 1.93767 16.6858C1.7568 15.8019 1.66612 14.902 1.667 13.9998C1.667 12.6064 1.88033 11.2624 2.27767 9.99977H2.33367C3.0135 9.99999 3.68218 9.82693 4.27655 9.49694C4.87093 9.16694 5.37139 8.6909 5.73069 8.11376C6.08998 7.53663 6.29625 6.87744 6.33001 6.19844C6.36378 5.51944 6.22393 4.84304 5.92367 4.2331C7.48722 2.77833 9.37736 1.72043 11.435 1.14844C11.7699 1.80604 12.2802 2.35817 12.9095 2.74374C13.5387 3.12931 14.2624 3.33329 15.0003 3.3331C15.7383 3.33329 16.462 3.12931 17.0912 2.74374C17.7204 2.35817 18.2307 1.80604 18.5657 1.14844C20.6233 1.72043 22.5134 2.77833 24.077 4.2331C23.7745 4.84731 23.6348 5.52887 23.6712 6.21254C23.7075 6.89621 23.9187 7.55911 24.2846 8.13779C24.6505 8.71646 25.1587 9.19155 25.7608 9.51756C26.3628 9.84358 27.0384 10.0096 27.723 9.99977C28.1289 11.2943 28.3348 12.6431 28.3337 13.9998C28.3337 14.9198 28.2403 15.8184 28.063 16.6864C27.2709 16.6075 26.4732 16.7667 25.7721 17.1437C25.071 17.5207 24.4984 18.0983 24.1274 18.8026C23.7564 19.5069 23.604 20.3059 23.6897 21.0973C23.7754 21.8887 24.0952 22.6365 24.6083 23.2451C23.0134 24.9041 21.0162 26.1221 18.811 26.7804C18.552 25.9733 18.0435 25.2692 17.3586 24.7697C16.6738 24.2702 15.848 24.0011 15.0003 24.0011C14.1527 24.0011 13.3269 24.2702 12.642 24.7697C11.9572 25.2692 11.4486 25.9733 11.1897 26.7804Z" stroke="#777777" stroke-width="1.5" stroke-linejoin="round"/>
<path d="M15.0007 18.6654C15.6135 18.6654 16.2203 18.5447 16.7865 18.3101C17.3527 18.0756 17.8671 17.7319 18.3005 17.2985C18.7338 16.8652 19.0776 16.3507 19.3121 15.7846C19.5466 15.2184 19.6673 14.6115 19.6673 13.9987C19.6673 13.3859 19.5466 12.779 19.3121 12.2128C19.0776 11.6467 18.7338 11.1322 18.3005 10.6989C17.8671 10.2655 17.3527 9.92178 16.7865 9.68726C16.2203 9.45274 15.6135 9.33203 15.0007 9.33203C13.763 9.33203 12.576 9.8237 11.7008 10.6989C10.8256 11.574 10.334 12.761 10.334 13.9987C10.334 15.2364 10.8256 16.4234 11.7008 17.2985C12.576 18.1737 13.763 18.6654 15.0007 18.6654Z" stroke="#777777" stroke-width="1.5" stroke-linejoin="round"/>
</svg>
